<svg width="1507" height="248" viewBox="0 0 1507 248" fill="none" xmlns="http://www.w3.org/2000/svg">
<path d="M321 199.833V48.1667H357.644V114.683H413.153V48.1667H449.797V199.833H413.153V147.4H357.644V199.833H321Z" fill="black"/>
<path d="M463.263 199.833L511.399 47.5167H555.633L604.419 199.833H564.089L556.066 171.667H509.665L501.642 199.833H463.263ZM516.386 141.55H549.345L532.865 75.9L516.386 141.55Z" fill="black"/>
<path d="M617.66 199.833V47.95H652.353L709.813 143.283V48.1667H742.337V200.05H707.644L650.401 106.667V199.833H617.66Z" fill="black"/>
<path d="M766.095 199.833V48.1667H802.74V199.833H766.095Z" fill="black"/>
<path d="M938.323 53.5833L931.385 81.75C928.494 80.7389 925.169 79.8 921.41 78.9333C917.652 78.0667 913.749 77.3444 909.702 76.7667C905.654 76.1889 901.607 75.7556 897.559 75.4667C893.512 75.1778 889.609 75.0333 885.85 75.0333C877.322 75.0333 870.817 76.1889 866.336 78.5C861.854 80.8111 859.614 84.4222 859.614 89.3333C859.614 91.9333 860.337 94.2445 861.782 96.2667C863.228 98.1444 865.54 99.8778 868.721 101.467C871.901 103.056 876.021 104.644 881.08 106.233C886.139 107.822 892.211 109.556 899.294 111.433C906.955 113.311 913.605 115.622 919.242 118.367C925.024 120.967 929.795 124.072 933.553 127.683C937.456 131.15 940.347 135.267 942.226 140.033C944.25 144.656 945.262 150.072 945.262 156.283C945.262 166.106 942.66 174.411 937.456 181.2C932.252 187.989 924.591 193.189 914.472 196.8C904.353 200.267 891.922 202 877.177 202C872.262 202 867.203 201.783 861.999 201.35C856.795 200.917 851.519 200.339 846.17 199.617C840.966 198.75 835.907 197.739 830.992 196.583C826.077 195.283 821.452 193.839 817.115 192.25L824.054 164.3C828.39 165.744 832.871 167.044 837.497 168.2C842.123 169.356 846.821 170.367 851.591 171.233C856.361 171.956 861.059 172.533 865.685 172.967C870.455 173.4 874.936 173.617 879.128 173.617C885.633 173.617 890.91 173.111 894.957 172.1C899.149 170.944 902.185 169.283 904.064 167.117C906.088 164.95 907.1 162.278 907.1 159.1C907.1 156.356 906.088 154.044 904.064 152.167C902.185 150.289 899.294 148.556 895.391 146.967C891.488 145.233 886.573 143.5 880.646 141.767C874.864 140.033 868.142 138.011 860.481 135.7C853.976 133.533 848.266 131.078 843.351 128.333C838.581 125.589 834.534 122.483 831.209 119.017C827.884 115.406 825.355 111.289 823.62 106.667C822.03 102.044 821.235 96.8444 821.235 91.0667C821.235 84.5667 822.463 78.5722 824.921 73.0833C827.523 67.5944 831.354 62.8278 836.413 58.7833C841.617 54.7389 848.339 51.6333 856.578 49.4667C864.818 47.1556 874.575 46 885.85 46C892.5 46 899.077 46.3611 905.582 47.0833C912.231 47.8056 918.375 48.7444 924.012 49.9C929.65 51.0556 934.42 52.2833 938.323 53.5833Z" fill="black"/>
<path d="M956.119 126.383C956.119 107.172 958.865 91.7167 964.358 80.0167C969.851 68.1722 978.018 59.5778 988.86 54.2333C999.846 48.7444 1013.58 46 1030.06 46C1035.12 46 1039.67 46.1444 1043.72 46.4333C1047.91 46.5778 1051.81 46.9389 1055.43 47.5167C1059.19 48.0944 1062.8 48.8167 1066.27 49.6833C1069.74 50.4056 1073.28 51.3444 1076.89 52.5L1069.52 81.5333C1065.18 80.5222 1060.99 79.7278 1056.94 79.15C1052.9 78.4278 1048.92 77.9222 1045.02 77.6333C1041.26 77.2 1037.43 76.9833 1033.53 76.9833C1026.44 76.9833 1020.37 77.85 1015.31 79.5833C1010.25 81.3167 1006.13 84.0611 1002.95 87.8167C999.774 91.5722 997.389 96.6278 995.799 102.983C994.208 109.194 993.413 116.922 993.413 126.167C993.413 134.544 994.136 141.622 995.582 147.4C997.172 153.178 999.557 157.8 1002.74 161.267C1005.92 164.733 1009.96 167.261 1014.88 168.85C1019.94 170.439 1025.87 171.233 1032.66 171.233C1039.02 171.233 1045.74 170.728 1052.83 169.717C1060.05 168.706 1066.7 167.406 1072.77 165.817L1079.28 194.633C1075.81 195.644 1072.2 196.656 1068.44 197.667C1064.68 198.533 1060.63 199.256 1056.29 199.833C1052.1 200.556 1047.55 201.061 1042.63 201.35C1037.72 201.783 1032.37 202 1026.59 202C1014.88 202 1004.62 200.628 995.799 197.883C986.981 195.139 979.609 190.806 973.682 184.883C967.9 178.961 963.491 171.161 960.455 161.483C957.564 151.806 956.119 140.106 956.119 126.383Z" fill="black"/>
<path d="M1085.8 199.833L1133.94 47.5167H1178.17L1226.96 199.833H1186.63L1178.61 171.667H1132.21L1124.18 199.833H1085.8ZM1138.93 141.55H1171.89L1155.41 75.9L1138.93 141.55Z" fill="black"/>
<path d="M1240.2 199.833V47.7333C1250.61 47.3 1259.72 46.9389 1267.52 46.65C1275.33 46.3611 1281.9 46.2167 1287.25 46.2167C1292.75 46.0722 1296.87 46 1299.61 46C1313.2 46 1324.48 47.0833 1333.44 49.25C1342.4 51.2722 1349.41 54.45 1354.47 58.7833C1359.53 63.1167 1363.14 68.75 1365.31 75.6833C1367.48 82.6167 1368.56 90.9944 1368.56 100.817C1368.56 110.928 1367.48 119.594 1365.31 126.817C1363.29 134.039 1359.89 139.961 1355.12 144.583C1350.49 149.206 1344.42 152.672 1336.91 154.983C1329.39 157.15 1320.14 158.233 1309.15 158.233C1305.97 158.233 1303.3 158.233 1301.13 158.233C1299.11 158.233 1297.3 158.233 1295.71 158.233C1294.12 158.233 1292.53 158.233 1290.94 158.233C1289.35 158.089 1287.47 157.944 1285.3 157.8C1283.13 157.656 1280.39 157.511 1277.06 157.367V199.833H1240.2ZM1277.06 75.9V128.55C1279.37 128.694 1281.4 128.839 1283.13 128.983C1284.87 128.983 1286.46 129.056 1287.9 129.2C1289.49 129.2 1291.01 129.2 1292.46 129.2C1294.05 129.2 1295.78 129.2 1297.66 129.2C1304.74 129.2 1310.45 128.694 1314.79 127.683C1319.27 126.672 1322.67 125.011 1324.98 122.7C1327.44 120.389 1329.1 117.356 1329.97 113.6C1330.84 109.844 1331.27 105.294 1331.27 99.95C1331.27 95.4722 1330.84 91.7167 1329.97 88.6833C1329.1 85.5056 1327.58 82.9056 1325.41 80.8833C1323.39 78.8611 1320.5 77.4167 1316.74 76.55C1312.98 75.5389 1308.21 75.0333 1302.43 75.0333C1300.55 75.0333 1298.82 75.0333 1297.23 75.0333C1295.64 75.0333 1293.9 75.1056 1292.02 75.25C1290.29 75.25 1288.19 75.3222 1285.73 75.4667C1283.42 75.6111 1280.53 75.7556 1277.06 75.9Z" fill="black"/>
<path d="M1385.25 199.833V48.1667H1494.1V79.3667H1421.89V107.967H1488.68V137.433H1421.89V168.85H1498V199.833H1385.25Z" fill="black"/>
<rect x="10" y="10" width="259" height="228.19" rx="20" fill="#FFD600"/>
<path d="M49.1229 200.643H62.1977V61.2358H217.438V187.752H153.906V99.7248H140.831V200.643H230.329V48.1606H49.1229V200.643Z" fill="#279DCF"/>
<path fill-rule="evenodd" clip-rule="evenodd" d="M45.624 204.327V44.6616H234.012V204.327H137.332V96.0417H157.404V184.253H213.755V64.7348H65.6966V204.327H45.624ZM62.1977 200.643H49.1229V48.1606H230.329V200.643H140.831V99.7248H153.906V187.752H217.438V61.2358H62.1977V200.643Z" fill="#0957CC"/>
</svg>
