<svg width="1547" height="265" viewBox="0 0 1547 265" fill="none" xmlns="http://www.w3.org/2000/svg">
<path d="M355 207.833V56.1667H391.644V122.683H447.153V56.1667H483.797V207.833H447.153V155.4H391.644V207.833H355Z" fill="white"/>
<path d="M497.263 207.833L545.399 55.5167H589.633L638.419 207.833H598.089L590.066 179.667H543.665L535.642 207.833H497.263ZM550.386 149.55H583.345L566.865 83.9L550.386 149.55Z" fill="white"/>
<path d="M651.66 207.833V55.95H686.353L743.813 151.283V56.1667H776.337V208.05H741.644L684.401 114.667V207.833H651.66Z" fill="white"/>
<path d="M800.095 207.833V56.1667H836.74V207.833H800.095Z" fill="white"/>
<path d="M972.323 61.5833L965.385 89.75C962.494 88.7389 959.169 87.8 955.41 86.9333C951.652 86.0667 947.749 85.3444 943.702 84.7667C939.654 84.1889 935.607 83.7556 931.559 83.4667C927.512 83.1778 923.609 83.0333 919.85 83.0333C911.322 83.0333 904.817 84.1889 900.336 86.5C895.854 88.8111 893.614 92.4222 893.614 97.3333C893.614 99.9333 894.337 102.244 895.782 104.267C897.228 106.144 899.54 107.878 902.721 109.467C905.901 111.056 910.021 112.644 915.08 114.233C920.139 115.822 926.211 117.556 933.294 119.433C940.955 121.311 947.605 123.622 953.242 126.367C959.024 128.967 963.795 132.072 967.553 135.683C971.456 139.15 974.347 143.267 976.226 148.033C978.25 152.656 979.262 158.072 979.262 164.283C979.262 174.106 976.66 182.411 971.456 189.2C966.252 195.989 958.591 201.189 948.472 204.8C938.353 208.267 925.922 210 911.177 210C906.262 210 901.203 209.783 895.999 209.35C890.795 208.917 885.519 208.339 880.17 207.617C874.966 206.75 869.907 205.739 864.992 204.583C860.077 203.283 855.452 201.839 851.115 200.25L858.054 172.3C862.39 173.744 866.871 175.044 871.497 176.2C876.123 177.356 880.821 178.367 885.591 179.233C890.361 179.956 895.059 180.533 899.685 180.967C904.455 181.4 908.936 181.617 913.129 181.617C919.633 181.617 924.91 181.111 928.957 180.1C933.149 178.944 936.185 177.283 938.064 175.117C940.088 172.95 941.1 170.278 941.1 167.1C941.1 164.356 940.088 162.044 938.064 160.167C936.185 158.289 933.294 156.556 929.391 154.967C925.488 153.233 920.573 151.5 914.646 149.767C908.864 148.033 902.142 146.011 894.481 143.7C887.976 141.533 882.266 139.078 877.351 136.333C872.581 133.589 868.534 130.483 865.209 127.017C861.884 123.406 859.355 119.289 857.62 114.667C856.03 110.044 855.235 104.844 855.235 99.0667C855.235 92.5667 856.463 86.5722 858.921 81.0833C861.523 75.5944 865.354 70.8278 870.413 66.7833C875.617 62.7389 882.339 59.6333 890.578 57.4667C898.818 55.1556 908.575 54 919.85 54C926.5 54 933.077 54.3611 939.582 55.0833C946.231 55.8056 952.375 56.7444 958.012 57.9C963.65 59.0556 968.42 60.2833 972.323 61.5833Z" fill="white"/>
<path d="M990.119 134.383C990.119 115.172 992.865 99.7167 998.358 88.0167C1003.85 76.1722 1012.02 67.5778 1022.86 62.2333C1033.85 56.7444 1047.58 54 1064.06 54C1069.12 54 1073.67 54.1444 1077.72 54.4333C1081.91 54.5778 1085.81 54.9389 1089.43 55.5167C1093.19 56.0944 1096.8 56.8167 1100.27 57.6833C1103.74 58.4056 1107.28 59.3444 1110.89 60.5L1103.52 89.5333C1099.18 88.5222 1094.99 87.7278 1090.94 87.15C1086.9 86.4278 1082.92 85.9222 1079.02 85.6333C1075.26 85.2 1071.43 84.9833 1067.53 84.9833C1060.44 84.9833 1054.37 85.85 1049.31 87.5833C1044.25 89.3167 1040.13 92.0611 1036.95 95.8167C1033.77 99.5722 1031.39 104.628 1029.8 110.983C1028.21 117.194 1027.41 124.922 1027.41 134.167C1027.41 142.544 1028.14 149.622 1029.58 155.4C1031.17 161.178 1033.56 165.8 1036.74 169.267C1039.92 172.733 1043.96 175.261 1048.88 176.85C1053.94 178.439 1059.87 179.233 1066.66 179.233C1073.02 179.233 1079.74 178.728 1086.82 177.717C1094.05 176.706 1100.7 175.406 1106.77 173.817L1113.28 202.633C1109.81 203.644 1106.2 204.656 1102.44 205.667C1098.68 206.533 1094.63 207.256 1090.29 207.833C1086.1 208.556 1081.55 209.061 1076.63 209.35C1071.72 209.783 1066.37 210 1060.59 210C1048.88 210 1038.62 208.628 1029.8 205.883C1020.98 203.139 1013.61 198.806 1007.68 192.883C1001.9 186.961 997.491 179.161 994.455 169.483C991.564 159.806 990.119 148.106 990.119 134.383Z" fill="white"/>
<path d="M1119.8 207.833L1167.94 55.5167H1212.17L1260.96 207.833H1220.63L1212.61 179.667H1166.21L1158.18 207.833H1119.8ZM1172.93 149.55H1205.89L1189.41 83.9L1172.93 149.55Z" fill="white"/>
<path d="M1274.2 207.833V55.7333C1284.61 55.3 1293.72 54.9389 1301.52 54.65C1309.33 54.3611 1315.9 54.2167 1321.25 54.2167C1326.75 54.0722 1330.87 54 1333.61 54C1347.2 54 1358.48 55.0833 1367.44 57.25C1376.4 59.2722 1383.41 62.45 1388.47 66.7833C1393.53 71.1167 1397.14 76.75 1399.31 83.6833C1401.48 90.6167 1402.56 98.9944 1402.56 108.817C1402.56 118.928 1401.48 127.594 1399.31 134.817C1397.29 142.039 1393.89 147.961 1389.12 152.583C1384.49 157.206 1378.42 160.672 1370.91 162.983C1363.39 165.15 1354.14 166.233 1343.15 166.233C1339.97 166.233 1337.3 166.233 1335.13 166.233C1333.11 166.233 1331.3 166.233 1329.71 166.233C1328.12 166.233 1326.53 166.233 1324.94 166.233C1323.35 166.089 1321.47 165.944 1319.3 165.8C1317.13 165.656 1314.39 165.511 1311.06 165.367V207.833H1274.2ZM1311.06 83.9V136.55C1313.37 136.694 1315.4 136.839 1317.13 136.983C1318.87 136.983 1320.46 137.056 1321.9 137.2C1323.49 137.2 1325.01 137.2 1326.46 137.2C1328.05 137.2 1329.78 137.2 1331.66 137.2C1338.74 137.2 1344.45 136.694 1348.79 135.683C1353.27 134.672 1356.67 133.011 1358.98 130.7C1361.44 128.389 1363.1 125.356 1363.97 121.6C1364.84 117.844 1365.27 113.294 1365.27 107.95C1365.27 103.472 1364.84 99.7167 1363.97 96.6833C1363.1 93.5056 1361.58 90.9056 1359.41 88.8833C1357.39 86.8611 1354.5 85.4167 1350.74 84.55C1346.98 83.5389 1342.21 83.0333 1336.43 83.0333C1334.55 83.0333 1332.82 83.0333 1331.23 83.0333C1329.64 83.0333 1327.9 83.1056 1326.02 83.25C1324.29 83.25 1322.19 83.3222 1319.73 83.4667C1317.42 83.6111 1314.53 83.7556 1311.06 83.9Z" fill="white"/>
<path d="M1419.25 207.833V56.1667H1528.1V87.3667H1455.89V115.967H1522.68V145.433H1455.89V176.85H1532V207.833H1419.25Z" fill="white"/>
<rect x="15" y="14" width="269" height="237" rx="20" fill="#FFD600"/>
<path d="M49.5 215.83V218.33H52H72.8476H75.3476V215.83V73.3482H224.123V192.481H170.596V103.364V100.864H168.096H147.249H144.749V103.364V215.83V218.33H147.249H247.661H250.161V215.83V50V47.5H247.661H52H49.5V50V215.83Z" fill="black" stroke="black" stroke-width="5"/>
</svg>
